<svg xmlns="http://www.w3.org/2000/svg" width="1200" height="630" viewBox="0 0 1200 630" font-family="Inter, Arial, sans-serif">
  <defs>
    <radialGradient id="g" cx="78%" cy="0%" r="90%">
      <stop offset="0%" stop-color="#0e2a33"/><stop offset="55%" stop-color="#0a0b0e"/><stop offset="100%" stop-color="#07080b"/>
    </radialGradient>
    <filter id="gl" x="-60%" y="-60%" width="220%" height="220%"><feGaussianBlur stdDeviation="5" result="b"/><feMerge><feMergeNode in="b"/><feMergeNode in="SourceGraphic"/></feMerge></filter>
  </defs>
  <rect width="1200" height="630" fill="url(#g)"/>
  <g opacity="0.10" stroke="#ffffff" stroke-width="1">
    <path d="M0 78 H1200 M0 156 H1200 M0 234 H1200 M0 312 H1200 M0 390 H1200 M0 468 H1200 M0 546 H1200"/>
    <path d="M78 0 V630 M234 0 V630 M390 0 V630 M546 0 V630 M702 0 V630 M858 0 V630 M1014 0 V630 M1170 0 V630"/>
  </g>
  <!-- logo -->
  <g transform="translate(80,76)">
    <rect width="48" height="48" rx="13" fill="#22d3ee"/>
    <text x="24" y="33" text-anchor="middle" font-size="26" fill="#04222a">◳</text>
    <text x="66" y="34" font-size="30" font-weight="800" fill="#eef1f4" letter-spacing="-1">lots<tspan fill="#22d3ee">e</tspan></text>
  </g>
  <!-- eyebrow -->
  <text x="80" y="250" font-family="'JetBrains Mono',monospace" font-size="19" letter-spacing="4" fill="#67e8f9">INDOOR-WAYFINDING · DIGITAL TWIN</text>
  <!-- headline -->
  <text x="78" y="320" font-size="62" font-weight="800" fill="#f4f6fb" letter-spacing="-2">Jeder Besucher</text>
  <text x="78" y="386" font-size="62" font-weight="800" fill="#67e8f9" letter-spacing="-2">findet den Weg.</text>
  <text x="80" y="446" font-size="25" fill="#a6adbb">Interaktive 3D-Karte · Live-Route · im Browser, ohne App.</text>
  <!-- iso building motif -->
  <g transform="translate(890,300)" filter="url(#gl)">
    <polygon points="0,-150 150,-75 0,0 -150,-75" fill="#161c26" stroke="#22d3ee" stroke-width="1.5" stroke-opacity="0.5"/>
    <polygon points="0,-40 150,35 0,110 -150,35" fill="#0f3540" stroke="#22d3ee" stroke-width="2"/>
    <polygon points="0,70 150,145 0,220 -150,145" fill="#12161d" stroke="#22d3ee" stroke-width="1.5" stroke-opacity="0.4"/>
    <path d="M-120,150 L-40,110 L20,40 L60,10" fill="none" stroke="#22d3ee" stroke-width="5" stroke-linecap="round"/>
    <circle cx="-120" cy="150" r="9" fill="#34d399"/>
    <circle cx="60" cy="10" r="11" fill="none" stroke="#22d3ee" stroke-width="3"/><circle cx="60" cy="10" r="6" fill="#22d3ee"/>
  </g>
  <!-- footer -->
  <text x="80" y="566" font-family="'JetBrains Mono',monospace" font-size="18" fill="#6b7280">lotse · besucherfuehrung-sektor10.vercel.app</text>
  <text x="1120" y="566" text-anchor="end" font-family="'JetBrains Mono',monospace" font-size="15" fill="#5d6675">3D: swissBUILDINGS3D © swisstopo</text>
</svg>
